<svg width="71" height="80" viewBox="0 0 71 80" fill="none" xmlns="http://www.w3.org/2000/svg">
<path d="M63.6907 18.4667L51.3428 6.83333C46.6592 2.43333 40.4143 0 33.7791 0H17.7411C7.94803 0 0 7.46667 0 16.6667V63.3333C0 72.5333 7.94803 80 17.7411 80H24.8376C26.7891 80 28.3858 78.5 28.3858 76.6667C28.3858 74.8333 26.7891 73.3333 24.8376 73.3333H17.7411C11.8866 73.3333 7.09645 68.8333 7.09645 63.3333V16.6667C7.09645 11.1667 11.8866 6.66667 17.7411 6.66667H33.7436C34.3113 6.66667 34.9145 6.66667 35.4823 6.73333V23.3333C35.4823 28.8333 40.2724 33.3333 46.1269 33.3333H63.7971C63.8681 33.8667 63.8681 34.4 63.8681 34.9667V63.3333C63.8681 66.9 61.8101 70.2 58.5457 72C56.8426 72.9333 56.2749 74.9667 57.2684 76.5667C58.2264 78.1667 60.3908 78.7 62.1294 77.8C67.5937 74.8333 71 69.3 71 63.3667V34.9667C71 28.7333 68.4098 22.8667 63.7261 18.4667H63.6907ZM46.1269 26.6667C44.1754 26.6667 42.5787 25.1667 42.5787 23.3333V8.86667C43.927 9.6 45.1689 10.5 46.3043 11.5667L58.6522 23.2C59.7876 24.2667 60.7456 25.4333 61.5262 26.7H46.1269V26.6667ZM42.5787 40C34.7371 40 28.3858 45.9667 28.3858 53.3333C28.3858 58.2667 31.2599 62.5667 35.4823 64.8667V77.5667C35.4823 79.7 38.2499 80.7667 39.8466 79.2667L42.5787 76.7L45.3108 79.2667C46.9075 80.7667 49.6752 79.7 49.6752 77.5667V64.8667C53.8975 62.5667 56.7716 58.2333 56.7716 53.3333C56.7716 45.9667 50.4203 40 42.5787 40ZM42.5787 60C38.6757 60 35.4823 57 35.4823 53.3333C35.4823 49.6667 38.6757 46.6667 42.5787 46.6667C46.4818 46.6667 49.6752 49.6667 49.6752 53.3333C49.6752 57 46.4818 60 42.5787 60Z" fill="url(#paint0_linear_17_98)"/>
<defs>
<linearGradient id="paint0_linear_17_98" x1="71" y1="40" x2="0" y2="40" gradientUnits="userSpaceOnUse">
<stop stop-color="#1F180E"/>
<stop offset="1" stop-color="#D21500"/>
</linearGradient>
</defs>
</svg>
