<svg width="81" height="81" viewBox="0 0 81 81" fill="none" xmlns="http://www.w3.org/2000/svg">
<path d="M54.7006 29.261L43.7997 41.0002C41.943 42.8678 39.5842 43.8472 37.0704 43.8472C34.5566 43.8472 32.2012 42.8678 30.4254 41.0881L25.4517 36.1033C24.1341 34.7828 24.1341 32.6484 25.4517 31.3279C26.7692 30.0074 28.8989 30.0074 30.2164 31.3279L35.1901 36.3127C36.1943 37.3191 37.9465 37.3191 38.9473 36.3127L49.7674 24.6613C51.0378 23.2935 53.1708 23.2226 54.5288 24.489C55.8902 25.7589 55.9677 27.8966 54.7006 29.261ZM80.6237 67.9302C79.8622 69.764 78.1672 70.9021 76.1892 70.9021H70.9257V76.1773C70.9257 79.1932 68.4692 80.9966 66.0902 80.9966C64.8198 80.9966 63.6573 80.5069 62.7306 79.5782L48.0185 64.8333C48.0185 64.8333 48.0084 64.813 47.9983 64.8029C47.4356 65.2554 46.883 65.7181 46.2292 66.0828C44.4703 67.0622 42.4956 67.5519 40.5243 67.5519C38.5531 67.5519 36.5784 67.0622 34.8161 66.0828C34.1522 65.7147 33.5861 65.2453 33.0133 64.7826C32.9998 64.7995 32.9931 64.8198 32.9796 64.8366L18.2675 79.5816C17.3442 80.5103 16.1817 81 14.9079 81C12.5323 81 10.0758 79.1966 10.0758 76.1807V70.9055H4.81231C2.8343 70.9055 1.13597 69.7708 0.377788 67.9403C-0.380393 66.1031 0.0206002 64.097 1.41902 62.6955L13.3511 50.7401C13.1624 49.315 13.2062 47.8931 13.523 46.4984C13.742 45.5359 13.2804 44.499 12.3773 43.9148C10.6958 42.8273 9.33444 41.3515 8.3269 39.5345C7.36654 37.7953 6.86108 35.8027 6.87119 33.7629C6.86108 31.7534 7.36317 29.7575 8.3269 28.0182C9.33107 26.1979 10.6958 24.7221 12.3773 23.638C13.2804 23.0537 13.742 22.0169 13.523 21.0578C13.0714 19.0551 13.1388 17.0051 13.7218 14.9619C14.8338 11.0849 17.9238 7.98796 21.7922 6.87348C23.8275 6.28922 25.8729 6.22168 27.8678 6.67422C28.8349 6.88699 29.8626 6.42769 30.4456 5.52259C31.5273 3.84074 32.9998 2.47634 34.8161 1.46656C38.334 -0.488852 42.7079 -0.488852 46.2292 1.46656C48.0455 2.47634 49.5147 3.84074 50.5964 5.52597C51.1793 6.43106 52.2239 6.89712 53.1742 6.67422C55.1657 6.2183 57.2144 6.28922 59.2531 6.87348C63.1215 7.98796 66.2149 11.0849 67.3269 14.9619C67.9099 17.0085 67.9772 19.0619 67.5257 21.0612C67.3101 22.0203 67.7683 23.0571 68.6714 23.6414C70.3529 24.7288 71.7176 26.2013 72.7218 28.0216C73.6821 29.7609 74.1876 31.7534 74.1775 33.7933C74.1876 35.8027 73.6855 37.7986 72.7218 39.5379C71.7176 41.3549 70.3529 42.8307 68.6748 43.9182C67.7683 44.5024 67.3067 45.5392 67.5257 46.5017C67.8458 47.91 67.893 49.3454 67.6942 50.7874L79.5825 62.7022C80.9809 64.1038 81.3785 66.1099 80.6237 67.9403V67.9302ZM27.3118 60.963C25.4955 61.2872 23.6422 61.2028 21.7922 60.6759C19.6828 60.0714 17.8429 58.8353 16.3906 57.2413L9.49955 64.1477H13.4488C15.3089 64.1477 16.8185 65.6607 16.8185 67.5249V71.4796L27.3151 60.9596L27.3118 60.963ZM54.667 54.2862C55.5397 54.4855 56.4596 54.4483 57.3998 54.1815C59.0273 53.7155 60.382 52.3578 60.8503 50.7266C61.1165 49.7878 61.1536 48.8658 60.9548 47.9877C60.1124 44.2694 61.7467 40.3518 65.022 38.2343C65.76 37.7547 66.3699 37.0894 66.8316 36.2553C67.2326 35.5292 67.4448 34.6747 67.4415 33.7865C67.4448 32.8713 67.2326 32.0169 66.8316 31.2874C66.3699 30.4498 65.7634 29.7845 65.022 29.3083C61.7467 27.1908 60.1157 23.2732 60.9548 19.5583C61.1536 18.6802 61.1199 17.7582 60.8503 16.816C60.3853 15.1882 59.0273 13.8305 57.3998 13.3611C56.4664 13.0909 55.5464 13.0605 54.667 13.2564C50.9704 14.1075 47.0548 12.4661 44.9386 9.1835C44.4635 8.44388 43.7997 7.83261 42.9674 7.36993C41.4847 6.54589 39.5673 6.54927 38.088 7.36993C37.2524 7.83599 36.5885 8.44388 36.1134 9.1835C34.004 12.4628 30.0985 14.1075 26.3817 13.2598C25.5022 13.0605 24.5891 13.0943 23.6523 13.3645C22.0247 13.8339 20.6667 15.1882 20.2017 16.8194C19.9321 17.7582 19.8984 18.6802 20.0972 19.5617C20.9397 23.2732 19.3054 27.1942 16.03 29.3117C15.2921 29.7879 14.6855 30.4532 14.2239 31.2908C13.8195 32.0202 13.6072 32.8747 13.614 33.7595C13.6106 34.6747 13.8229 35.5292 14.2239 36.2586C14.6889 37.0962 15.2954 37.7615 16.0368 38.2411C19.3087 40.3552 20.943 44.2761 20.1006 47.9911C19.9018 48.8658 19.9389 49.7911 20.2084 50.7334C20.6768 52.3612 22.0281 53.7188 23.6556 54.1849C24.5891 54.4551 25.509 54.4888 26.3817 54.2896C27.0321 54.1444 27.6892 54.0701 28.3395 54.0701C31.4059 54.0701 34.3746 55.6574 36.1168 58.3625C36.5953 59.1021 37.2591 59.71 38.0914 60.1761C39.5707 61.0001 41.4847 61.0001 42.9707 60.1761C43.8031 59.7134 44.4669 59.1021 44.942 58.3625C47.0582 55.0832 50.9771 53.4419 54.6737 54.2862H54.667ZM71.5053 64.1477L64.6379 57.2649C63.1889 58.8488 61.3558 60.0714 59.2531 60.6725C57.3829 61.2061 55.5127 61.2872 53.683 60.9528L64.1863 71.4796V67.5249C64.1863 65.6607 65.696 64.1477 67.556 64.1477H71.5053Z" fill="url(#paint0_linear_14_26)"/>
<defs>
<linearGradient id="paint0_linear_14_26" x1="81" y1="40.5" x2="0" y2="40.5" gradientUnits="userSpaceOnUse">
<stop stop-color="#1F180E"/>
<stop offset="1" stop-color="#D21500"/>
</linearGradient>
</defs>
</svg>
