<svg width="83" height="82" viewBox="0 0 83 82" fill="none" xmlns="http://www.w3.org/2000/svg">
<path d="M29.5424 11.9583C29.5424 5.35392 34.8963 0 41.5008 0C48.1052 0 53.4591 5.35392 53.4591 11.9583C53.4591 18.5627 48.1052 23.9167 41.5008 23.9167C34.8963 23.9167 29.5424 18.5627 29.5424 11.9583ZM82.3641 54.5232C82.0361 53.6246 81.1819 53.0267 80.2253 53.0267H73.3885L70.9695 46.2378C70.6381 45.346 69.7873 44.7549 68.8341 44.7549C67.8808 44.7549 67.0301 45.346 66.6987 46.2378L64.2797 53.0267H57.4429C56.4863 53.0267 55.6355 53.6212 55.3041 54.5197C54.9727 55.4149 55.2392 56.4228 55.9669 57.0413L61.3823 61.4488L59.2401 68.3197C58.9497 69.2422 59.2743 70.2467 60.0464 70.8275C60.4496 71.1316 60.9313 71.2819 61.4131 71.2819C61.8538 71.2819 62.2946 71.1555 62.6807 70.8958L68.8477 66.7685L75.1208 70.8548C75.9305 71.381 76.9863 71.34 77.755 70.7489C78.5238 70.1578 78.8313 69.1465 78.5272 68.2274L76.2995 61.4385L81.6876 57.0481C82.4187 56.4331 82.6921 55.4218 82.3641 54.5232ZM52.8919 63.2767H46.0552L43.6362 56.4878C43.3047 55.596 42.454 55.0049 41.5008 55.0049C40.5475 55.0049 39.6968 55.596 39.3653 56.4878L36.9463 63.2767H30.1096C29.1529 63.2767 28.3022 63.8712 27.9708 64.7698C27.6393 65.6649 27.9058 66.6728 28.6336 67.2913L34.049 71.6988L31.9068 78.5697C31.6163 79.4922 31.9409 80.4967 32.7131 81.0775C33.1163 81.3816 33.598 81.5319 34.0798 81.5319C34.5205 81.5319 34.9613 81.4055 35.3473 81.1458L41.5144 77.0185L47.7874 81.1048C48.5972 81.631 49.6529 81.59 50.4217 80.9989C51.1904 80.4078 51.4979 79.3965 51.1938 78.4774L48.9662 71.6885L54.3543 67.2981C55.0854 66.6831 55.3553 65.6718 55.0273 64.7732C54.6993 63.8746 53.8486 63.2767 52.8919 63.2767ZM25.5586 53.0267H18.7218L16.3028 46.2378C15.9714 45.346 15.1207 44.7549 14.1674 44.7549C13.2142 44.7549 12.3634 45.346 12.032 46.2378L9.613 53.0267H2.77966C1.823 53.0267 0.972248 53.6212 0.640832 54.5197C0.309415 55.4149 0.575915 56.4228 1.30366 57.0413L6.71908 61.4488L4.57683 68.3197C4.28641 69.2422 4.611 70.2467 5.38316 70.8275C5.78633 71.1316 6.26808 71.2819 6.74983 71.2819C7.19058 71.2819 7.63133 71.1555 8.01741 70.8958L14.1845 66.7685L20.4575 70.8548C21.2672 71.381 22.323 71.34 23.0917 70.7489C23.8605 70.1578 24.168 69.1465 23.8639 68.2274L21.6362 61.4385L27.0243 57.0481C27.7555 56.4331 28.0254 55.4218 27.6974 54.5232C27.3694 53.6246 26.5152 53.0267 25.5586 53.0267ZM24.3115 47.5019C26.9662 48.5133 29.9182 47.1705 30.9193 44.5226C32.491 40.3713 36.7448 37.5833 41.5008 37.5833C46.2568 37.5833 50.5139 40.3713 52.0856 44.5226C52.8612 46.5726 54.8087 47.8333 56.8758 47.8333C57.4805 47.8333 58.0921 47.7274 58.69 47.4985C61.3345 46.4974 62.6704 43.5386 61.6659 40.8907C58.5978 32.7795 50.49 27.3299 41.5008 27.3299C32.5115 27.3299 24.4037 32.7795 21.3322 40.8907C20.3311 43.5386 21.6636 46.5008 24.3115 47.5019Z" fill="url(#paint0_linear_17_115)"/>
<defs>
<linearGradient id="paint0_linear_17_115" x1="82.4986" y1="40.766" x2="0.5" y2="40.766" gradientUnits="userSpaceOnUse">
<stop stop-color="#1F180E"/>
<stop offset="1" stop-color="#D21500"/>
</linearGradient>
</defs>
</svg>
