<svg width="184" height="45" viewBox="0 0 184 45" fill="none" xmlns="http://www.w3.org/2000/svg">
<path d="M7.89196 27.1475C5.13984 27.1475 3.17404 26.525 1.99456 25.2799C0.826311 24.0348 0.242188 22.1116 0.242188 19.5102V16.9088H6.10589V19.2934C6.10589 21.0054 6.57768 21.8614 7.52126 21.8614C7.95936 21.8614 8.30197 21.6947 8.5491 21.3612C8.80746 21.0277 8.93664 20.5886 8.93664 20.0438C8.93664 19.3323 8.83554 18.732 8.63334 18.2429C8.44238 17.7537 8.1447 17.2924 7.74031 16.8588C7.34715 16.4141 6.69563 15.8027 5.78574 15.0245L3.27514 12.8734C1.25317 11.1503 0.242188 9.20482 0.242188 7.03702C0.242188 4.68023 0.848777 2.92931 2.06196 1.78427C3.28637 0.628107 4.96572 0.0500262 7.10002 0.0500262C7.15619 0.0500262 7.20674 0.0500262 7.25167 0.0500262C7.2966 0.0500262 7.59428 0.0500262 8.1447 0.0500262C8.69513 0.0500262 9.40281 0.177871 10.2678 0.43356C11.1327 0.678133 11.9022 1.09502 12.5762 1.68421C13.2502 2.2623 13.7557 3.07383 14.0927 4.11882C14.4296 5.1527 14.5981 6.42003 14.5981 7.92081H8.5828L8.5491 6.31997C8.53786 6.01982 8.40868 5.75301 8.16155 5.51956C7.91442 5.2861 7.63921 5.16937 7.33592 5.16937C6.94276 5.16937 6.60576 5.29166 6.32493 5.53623C6.05534 5.76969 5.92054 6.0754 5.92054 6.45338C5.92054 7.20933 6.47658 8.03198 7.58866 8.92134L11.1777 11.7895C11.7618 12.2564 12.2673 12.7344 12.6941 13.2236C13.1322 13.7016 13.4748 14.1796 13.722 14.6577C13.9803 15.1246 14.1881 15.5526 14.3454 15.9417C14.5027 16.3197 14.6094 16.7365 14.6655 17.1923C14.7329 17.637 14.7723 17.9761 14.7835 18.2095C14.7947 18.4319 14.8003 18.7265 14.8003 19.0933C14.8003 20.0271 14.7386 20.8776 14.615 21.6447C14.4914 22.4006 14.2724 23.1343 13.9579 23.8458C13.6433 24.5462 13.2277 25.1354 12.711 25.6134C12.2055 26.0803 11.5427 26.4527 10.7227 26.7307C9.91392 27.0086 8.97034 27.1475 7.89196 27.1475Z" fill="url(#paint0_linear_85_169)"/>
<path d="M16.2413 19.677V7.02034C16.2413 4.80807 16.8423 3.09606 18.0442 1.88432C19.2574 0.661457 21.0772 0.0333508 23.5036 0C25.9973 0.0333508 27.8452 0.661457 29.0471 1.88432C30.2603 3.09606 30.8669 4.80807 30.8669 7.02034V19.677C30.8669 20.7553 30.7265 21.7392 30.4456 22.6285C30.176 23.5067 29.7604 24.2905 29.1988 24.9797C28.6371 25.669 27.8732 26.2026 26.9072 26.5806C25.9524 26.9586 24.8515 27.1309 23.6047 27.0975C22.2904 27.1309 21.1502 26.9586 20.1842 26.5806C19.2293 26.2026 18.4711 25.669 17.9094 24.9797C17.3478 24.2905 16.9265 23.5067 16.6457 22.6285C16.3761 21.7392 16.2413 20.7553 16.2413 19.677ZM23.5541 21.8948C23.7675 21.8948 23.9529 21.8559 24.1101 21.7781C24.2786 21.6891 24.4078 21.5613 24.4977 21.3945C24.5988 21.2167 24.6774 21.0499 24.7336 20.8943C24.7897 20.7386 24.8291 20.533 24.8515 20.2773C24.874 20.0105 24.8852 19.8104 24.8852 19.677C24.8965 19.5324 24.9021 19.3379 24.9021 19.0933C24.9021 19.0377 24.9021 18.9933 24.9021 18.9599V8.28767C24.9021 8.22097 24.9021 8.08757 24.9021 7.88746C24.9133 7.68736 24.9133 7.53728 24.9021 7.43723C24.9021 7.33717 24.8965 7.19265 24.8852 7.00367C24.8852 6.80356 24.8684 6.65348 24.8347 6.55343C24.8122 6.44226 24.7785 6.30886 24.7336 6.15322C24.6999 5.98647 24.6493 5.86418 24.5819 5.78636C24.5145 5.69743 24.4359 5.60849 24.346 5.51956C24.2562 5.4195 24.1438 5.3528 24.009 5.31945C23.8742 5.27498 23.7226 5.25275 23.5541 5.25275C23.3182 5.25275 23.1104 5.29166 22.9307 5.36948C22.7622 5.4473 22.6274 5.57514 22.5263 5.75301C22.4252 5.91976 22.3409 6.0754 22.2735 6.21992C22.2061 6.35332 22.1612 6.55899 22.1387 6.83691C22.1163 7.10372 22.105 7.29826 22.105 7.42055C22.105 7.53172 22.105 7.72627 22.105 8.00419C22.105 8.04866 22.105 8.08757 22.105 8.12092C22.105 8.15427 22.105 8.18762 22.105 8.22097V18.8932C22.105 19.1378 22.105 19.3323 22.105 19.4769C22.1163 19.6214 22.1331 19.8326 22.1556 20.1105C22.178 20.3884 22.2174 20.6163 22.2735 20.7942C22.3409 20.961 22.4252 21.1388 22.5263 21.3278C22.6274 21.5168 22.7622 21.6613 22.9307 21.7614C23.1104 21.8503 23.3182 21.8948 23.5541 21.8948Z" fill="url(#paint1_linear_85_169)"/>
<path d="M33.0156 19.8104V0.283482H38.7782V19.2934C38.7782 19.3157 38.7782 19.3546 38.7782 19.4102C38.7782 19.6992 38.7782 19.9271 38.7782 20.0938C38.7894 20.2606 38.8175 20.4885 38.8624 20.7775C38.9186 21.0666 38.9916 21.2945 39.0814 21.4612C39.1825 21.628 39.3286 21.7781 39.5195 21.9115C39.7105 22.0338 39.9464 22.0949 40.2272 22.0949C40.4631 22.0949 40.6653 22.056 40.8338 21.9782C41.0135 21.9004 41.154 21.7836 41.2551 21.628C41.3562 21.4612 41.4348 21.3056 41.491 21.1611C41.5584 21.0054 41.6033 20.8053 41.6258 20.5608C41.6482 20.3051 41.6595 20.1105 41.6595 19.9771C41.6707 19.8437 41.6763 19.6547 41.6763 19.4102C41.6763 19.3546 41.6763 19.3157 41.6763 19.2934V0.283482H47.4389V19.8104C47.4389 22.2116 46.8548 24.0348 45.6865 25.2799C44.5295 26.525 42.721 27.142 40.2609 27.1309C37.7559 27.142 35.9193 26.525 34.7511 25.2799C33.5941 24.0348 33.0156 22.2116 33.0156 19.8104Z" fill="url(#paint2_linear_85_169)"/>
<path d="M64.4996 0.283482V26.8474H58.7033L55.7377 13.5571V26.8474H49.9414V0.283482H56.041L58.7707 12.9901V0.283482H64.4996Z" fill="url(#paint3_linear_85_169)"/>
<path d="M67.0863 26.8474V0.283482H75.2585C77.4714 0.283482 79.0833 0.844887 80.0943 1.9677C81.1165 3.07939 81.6333 4.60797 81.6445 6.55343C81.6445 6.55343 81.667 10.6889 81.7119 18.9599C81.7119 21.6169 81.1839 23.5957 80.128 24.8964C79.0833 26.197 77.3928 26.8474 75.0563 26.8474H67.0863ZM73.0511 4.98594V21.9948C73.0848 21.9837 73.1522 21.9782 73.2533 21.9782C73.3207 21.9782 73.4443 21.9837 73.624 21.9948C73.815 22.006 73.9666 22.0115 74.079 22.0115C75.2135 22.0115 75.7808 21.5391 75.7808 20.5941V7.48725C75.7808 6.52008 75.6235 5.85862 75.309 5.50288C75.0057 5.13602 74.4721 4.95259 73.7083 4.95259C73.5847 4.95259 73.3657 4.96371 73.0511 4.98594Z" fill="url(#paint4_linear_85_169)"/>
<path d="M91.6707 26.8474V0.283482H103.533V5.43618H97.7029V10.6222H103.297V15.6082H97.7029V21.6613H103.92V26.8474H91.6707Z" fill="url(#paint5_linear_85_169)"/>
<path d="M120.408 0.283482V26.8474H114.612L111.646 13.5571V26.8474H105.85V0.283482H111.95L114.679 12.9901V0.283482H120.408Z" fill="url(#paint6_linear_85_169)"/>
<path d="M122.995 26.8474V0.283482H134.857V5.43618H129.027V10.6222H134.621V15.6082H129.027V21.6613H135.245V26.8474H122.995Z" fill="url(#paint7_linear_85_169)"/>
<path d="M143.173 14.7577C143.173 14.7577 143.173 18.7876 143.173 26.8474H137.174V0.283482H146.273C147.206 0.283482 148.003 0.411326 148.666 0.667016C149.329 0.911588 149.851 1.23954 150.233 1.65086C150.615 2.05107 150.913 2.59024 151.126 3.26838C151.351 3.93539 151.497 4.60797 151.564 5.2861C151.631 5.95312 151.665 6.76465 151.665 7.72071C151.665 8.22097 151.654 8.6323 151.631 8.95469C151.62 9.26596 151.558 9.66617 151.446 10.1553C151.345 10.6333 151.199 11.0336 151.008 11.3559C150.817 11.6783 150.525 11.9952 150.132 12.3064C149.75 12.6177 149.284 12.8567 148.733 13.0235C149.284 13.1235 149.739 13.3125 150.098 13.5904C150.458 13.8573 150.716 14.1908 150.873 14.591C151.03 14.9912 151.137 15.3636 151.193 15.7082C151.25 16.0417 151.278 16.4197 151.278 16.8421C151.278 21.2333 151.255 24.5684 151.21 26.8474H145.414V16.492C145.414 16.0806 145.369 15.7527 145.279 15.5081C145.2 15.2635 145.043 15.0912 144.807 14.9912C144.583 14.88 144.364 14.8133 144.15 14.7911C143.937 14.7688 143.611 14.7577 143.173 14.7577ZM143.207 5.20272V10.1553H144.689C145.476 10.1553 145.869 9.34378 145.869 7.72071C145.869 6.64237 145.712 5.95312 145.397 5.65296C145.094 5.3528 144.47 5.20272 143.527 5.20272H143.207Z" fill="url(#paint8_linear_85_169)"/>
<path d="M165.592 26.8474L164.581 24.5962C163.525 26.2971 161.896 27.1475 159.694 27.1475C155.415 27.1475 153.275 24.4072 153.275 18.9266V7.42055C153.275 6.16434 153.443 5.06932 153.78 4.1355C154.117 3.20168 154.527 2.48463 155.01 1.98437C155.504 1.47299 156.105 1.06723 156.813 0.767068C157.521 0.466911 158.161 0.277923 158.734 0.200105C159.318 0.111169 159.947 0.0667016 160.621 0.0667016C161.452 0.0667016 162.205 0.127845 162.879 0.250131C163.553 0.3613 164.131 0.539171 164.615 0.783744C165.109 1.02832 165.541 1.30624 165.912 1.61751C166.283 1.91767 166.586 2.29565 166.822 2.75144C167.069 3.19612 167.266 3.64079 167.412 4.08547C167.569 4.51903 167.687 5.04709 167.765 5.66963C167.844 6.28106 167.895 6.85359 167.917 7.3872C167.951 7.92081 167.968 8.54892 167.968 9.27152H162.306V7.17042C162.306 6.74798 162.261 6.39779 162.171 6.11987C162.081 5.84195 161.952 5.6474 161.784 5.53623C161.626 5.41394 161.48 5.33613 161.346 5.30278C161.211 5.25831 161.059 5.23607 160.891 5.23607C160.554 5.23607 160.279 5.28054 160.065 5.36948C159.863 5.45841 159.7 5.56958 159.576 5.70298C159.464 5.83639 159.38 6.08096 159.324 6.4367C159.268 6.78133 159.234 7.10928 159.223 7.42055C159.211 7.73182 159.206 8.22097 159.206 8.88799V19.16C159.206 19.5491 159.217 19.8771 159.239 20.1439C159.273 20.4107 159.341 20.6997 159.442 21.011C159.543 21.3223 159.706 21.5613 159.93 21.728C160.166 21.8837 160.464 21.9615 160.823 21.9615C161.419 21.9615 161.812 21.7336 162.003 21.2778C162.205 20.8109 162.306 20.0605 162.306 19.0266V15.9584H160.722V11.3726H167.9V26.8474H165.592Z" fill="url(#paint9_linear_85_169)"/>
<path d="M178.524 26.8474H172.93V18.1095L168.195 0.283482H174.076L175.727 9.28819L177.378 0.283482H183.242L178.524 18.1095V26.8474Z" fill="url(#paint10_linear_85_169)"/>
<path d="M0 36.2734C0 35.4089 0.135417 34.6172 0.40625 33.8984C0.682292 33.1745 1.0651 32.5547 1.55469 32.0391C2.04948 31.5234 2.64062 31.1224 3.32812 30.8359C4.01562 30.5495 4.77604 30.4062 5.60938 30.4062C6.42708 30.4062 7.14583 30.5391 7.76562 30.8047C8.39062 31.0651 8.94271 31.4193 9.42188 31.8672L8.90625 32.5781C8.875 32.6302 8.83333 32.6745 8.78125 32.7109C8.72917 32.7422 8.66146 32.7578 8.57812 32.7578C8.48438 32.7578 8.36719 32.7057 8.22656 32.6016C8.08594 32.4974 7.90365 32.3828 7.67969 32.2578C7.45573 32.1276 7.17448 32.0104 6.83594 31.9062C6.5026 31.8021 6.09115 31.75 5.60156 31.75C5.00781 31.75 4.46615 31.8542 3.97656 32.0625C3.48698 32.2656 3.0651 32.5625 2.71094 32.9531C2.35677 33.3438 2.08073 33.8203 1.88281 34.3828C1.6849 34.9401 1.58594 35.5703 1.58594 36.2734C1.58594 36.987 1.6875 37.625 1.89062 38.1875C2.09896 38.7448 2.38021 39.2188 2.73438 39.6094C3.08854 39.9948 3.50521 40.2891 3.98438 40.4922C4.46875 40.6901 4.99219 40.7891 5.55469 40.7891C5.89844 40.7891 6.20573 40.7708 6.47656 40.7344C6.7526 40.6927 7.00521 40.6302 7.23438 40.5469C7.46875 40.4583 7.6849 40.349 7.88281 40.2188C8.08594 40.0885 8.28646 39.9323 8.48438 39.75C8.57812 39.6719 8.66927 39.6328 8.75781 39.6328C8.84115 39.6328 8.91406 39.6667 8.97656 39.7344L9.59375 40.3984C9.125 40.9401 8.55469 41.3646 7.88281 41.6719C7.21615 41.974 6.40885 42.125 5.46094 42.125C4.63802 42.125 3.89062 41.9844 3.21875 41.7031C2.54688 41.4167 1.97396 41.0156 1.5 40.5C1.02604 39.9844 0.65625 39.3672 0.390625 38.6484C0.130208 37.9297 0 37.138 0 36.2734Z" fill="url(#paint11_linear_85_169)"/>
<path d="M9.80469 34.9844V33.8984H17.4531V34.9844H14.3359V42H12.9141V34.9844H9.80469Z" fill="url(#paint12_linear_85_169)"/>
<path d="M17.8516 33.8984H19.0781C19.2031 33.8984 19.2995 33.9297 19.3672 33.9922C19.4401 34.0495 19.4922 34.1172 19.5234 34.1953L21.6875 39.2969C21.7292 39.4219 21.7682 39.5417 21.8047 39.6562C21.8464 39.7656 21.8802 39.8828 21.9062 40.0078C21.974 39.7682 22.0521 39.5286 22.1406 39.2891L24.25 34.1953C24.2812 34.112 24.3359 34.0417 24.4141 33.9844C24.4922 33.9271 24.5781 33.8984 24.6719 33.8984H25.7969L21.2812 44.3906C21.2344 44.4948 21.1745 44.5781 21.1016 44.6406C21.0286 44.7083 20.9167 44.7422 20.7656 44.7422H19.7109L21.1953 41.5312L17.8516 33.8984Z" fill="url(#paint13_linear_85_169)"/>
<path d="M25.3672 40.9609H25.7109C25.8932 40.9557 26.0729 40.9167 26.25 40.8438C26.4271 40.7708 26.5964 40.6406 26.7578 40.4531C26.9245 40.2656 27.0807 40.0078 27.2266 39.6797C27.3724 39.3464 27.5052 38.9193 27.625 38.3984C27.7448 37.8776 27.849 37.2474 27.9375 36.5078C28.0312 35.7682 28.1016 34.8984 28.1484 33.8984H33.2734V40.9219H34.7578V44.3516C34.7578 44.4922 34.7188 44.599 34.6406 44.6719C34.5625 44.75 34.4609 44.7891 34.3359 44.7891H33.4688V42H26.6484V44.3828C26.6484 44.4818 26.6172 44.5729 26.5547 44.6562C26.4974 44.7448 26.3984 44.7891 26.2578 44.7891H25.3672V40.9609ZM27.875 40.9609H31.8906V35.0156H29.3203C29.2682 35.849 29.1927 36.5859 29.0938 37.2266C29 37.8672 28.8906 38.4297 28.7656 38.9141C28.6406 39.3932 28.5026 39.8021 28.3516 40.1406C28.2005 40.474 28.0417 40.7474 27.875 40.9609Z" fill="url(#paint14_linear_85_169)"/>
<path d="M36.1953 42.0078V33.9062H37.6328V39.4062C37.6328 39.5052 37.6276 39.6172 37.6172 39.7422C37.6068 39.862 37.5938 39.9818 37.5781 40.1016C37.6198 39.9974 37.6641 39.9036 37.7109 39.8203C37.763 39.7318 37.8125 39.651 37.8594 39.5781C37.8646 39.5677 37.9245 39.4844 38.0391 39.3281C38.1589 39.1667 38.3099 38.9609 38.4922 38.7109C38.6797 38.4557 38.8906 38.1693 39.125 37.8516C39.3594 37.5339 39.5964 37.2109 39.8359 36.8828C40.4036 36.112 41.0495 35.237 41.7734 34.2578C41.8307 34.1745 41.9036 34.0938 41.9922 34.0156C42.0859 33.9375 42.1875 33.8984 42.2969 33.8984H43.1484V42H41.7266V36.4922C41.7266 36.3932 41.7318 36.2839 41.7422 36.1641C41.7526 36.0391 41.7656 35.9141 41.7812 35.7891C41.7344 35.8932 41.6849 35.9922 41.6328 36.0859C41.5807 36.1745 41.5312 36.2552 41.4844 36.3281C41.474 36.3385 41.4115 36.4245 41.2969 36.5859C41.1823 36.7422 41.0312 36.9479 40.8438 37.2031C40.6562 37.4531 40.4453 37.737 40.2109 38.0547C39.9766 38.3724 39.7396 38.6953 39.5 39.0234C38.9323 39.7943 38.2917 40.6693 37.5781 41.6484C37.5208 41.7318 37.4453 41.8125 37.3516 41.8906C37.263 41.9688 37.1667 42.0078 37.0625 42.0078H36.1953Z" fill="url(#paint15_linear_85_169)"/>
<path d="M44.3828 42L46.7344 38.9453C46.9219 38.638 47.1771 38.4245 47.5 38.3047C47.0885 38.2526 46.7396 38.1589 46.4531 38.0234C46.1719 37.8828 45.9427 37.7188 45.7656 37.5312C45.5885 37.3385 45.4583 37.1276 45.375 36.8984C45.2969 36.6693 45.2578 36.4375 45.2578 36.2031C45.2578 35.9271 45.3125 35.651 45.4219 35.375C45.5312 35.0938 45.7057 34.8464 45.9453 34.6328C46.1849 34.4141 46.4948 34.237 46.875 34.1016C47.2604 33.9661 47.724 33.8984 48.2656 33.8984H51.0234V42H49.6641V38.5859H49.0391C48.888 38.5859 48.763 38.599 48.6641 38.625C48.5703 38.6458 48.487 38.6771 48.4141 38.7188C48.3411 38.7604 48.2786 38.8151 48.2266 38.8828C48.1745 38.9505 48.1172 39.026 48.0547 39.1094L46.2812 41.5078C46.1927 41.6797 46.0807 41.8047 45.9453 41.8828C45.8151 41.9609 45.625 42 45.375 42H44.3828ZM46.6875 36.2812C46.6875 36.7188 46.8464 37.0625 47.1641 37.3125C47.487 37.5573 47.9271 37.6797 48.4844 37.6797H49.6641V34.8594H48.3047C48.0026 34.8594 47.7474 34.9036 47.5391 34.9922C47.3307 35.0755 47.1641 35.1875 47.0391 35.3281C46.9141 35.4635 46.8229 35.6146 46.7656 35.7812C46.7135 35.9479 46.6875 36.1146 46.6875 36.2812Z" fill="url(#paint16_linear_85_169)"/>
<path d="M56.7812 39.9766C56.7812 39.6589 56.8672 39.3516 57.0391 39.0547C57.2161 38.7578 57.5026 38.4948 57.8984 38.2656C58.2943 38.0365 58.8073 37.849 59.4375 37.7031C60.0729 37.5521 60.8542 37.4661 61.7812 37.4453V36.8125C61.7812 36.1823 61.6432 35.7083 61.3672 35.3906C61.0964 35.0677 60.7005 34.9062 60.1797 34.9062C59.8255 34.9062 59.5286 34.9505 59.2891 35.0391C59.0547 35.1276 58.849 35.2266 58.6719 35.3359C58.5 35.4401 58.3516 35.5365 58.2266 35.625C58.1016 35.7135 57.9792 35.7578 57.8594 35.7578C57.7656 35.7578 57.6823 35.7344 57.6094 35.6875C57.5417 35.6354 57.4844 35.5703 57.4375 35.4922L57.1797 35.0391C57.6276 34.6068 58.1094 34.2839 58.625 34.0703C59.1406 33.8568 59.7135 33.75 60.3438 33.75C60.7969 33.75 61.1979 33.8255 61.5469 33.9766C61.901 34.1276 62.1979 34.3359 62.4375 34.6016C62.6823 34.8672 62.8646 35.1901 62.9844 35.5703C63.1094 35.9453 63.1719 36.3594 63.1719 36.8125V42H62.5391C62.3984 42 62.2917 41.9792 62.2188 41.9375C62.1458 41.8906 62.0859 41.7995 62.0391 41.6641L61.8828 40.9062C61.6693 41.099 61.4583 41.2708 61.25 41.4219C61.0469 41.5729 60.8333 41.7005 60.6094 41.8047C60.3906 41.9089 60.1536 41.987 59.8984 42.0391C59.6484 42.0964 59.3672 42.125 59.0547 42.125C58.7422 42.125 58.4453 42.0833 58.1641 42C57.888 41.9115 57.6484 41.7786 57.4453 41.6016C57.2422 41.4245 57.0807 41.2031 56.9609 40.9375C56.8411 40.6667 56.7812 40.3464 56.7812 39.9766ZM58.1484 39.9141C58.1484 40.1276 58.1823 40.3125 58.25 40.4688C58.3177 40.6198 58.4115 40.7448 58.5312 40.8438C58.651 40.9427 58.7917 41.0156 58.9531 41.0625C59.1198 41.1042 59.2969 41.125 59.4844 41.125C59.7344 41.125 59.9635 41.1016 60.1719 41.0547C60.3802 41.0026 60.5755 40.9297 60.7578 40.8359C60.9401 40.7422 61.1146 40.6276 61.2812 40.4922C61.4531 40.3568 61.6198 40.2031 61.7812 40.0312V38.3516C61.125 38.3724 60.5651 38.4245 60.1016 38.5078C59.638 38.5911 59.2604 38.7005 58.9688 38.8359C58.6823 38.9661 58.474 39.1224 58.3438 39.3047C58.2135 39.487 58.1484 39.6901 58.1484 39.9141Z" fill="url(#paint17_linear_85_169)"/>
<path d="M65.3359 42V33.8984H68.3047C68.8047 33.8984 69.2344 33.9505 69.5938 34.0547C69.9531 34.1536 70.2474 34.2891 70.4766 34.4609C70.7057 34.6328 70.8724 34.8359 70.9766 35.0703C71.0859 35.3047 71.1406 35.5547 71.1406 35.8203C71.1406 35.9974 71.1146 36.1823 71.0625 36.375C71.0156 36.5677 70.9323 36.7526 70.8125 36.9297C70.6927 37.1068 70.5286 37.2656 70.3203 37.4062C70.1172 37.5469 69.862 37.6562 69.5547 37.7344C70.1693 37.8385 70.6458 38.0547 70.9844 38.3828C71.3229 38.7057 71.4922 39.1302 71.4922 39.6562C71.4922 40.0521 71.4115 40.3958 71.25 40.6875C71.0938 40.974 70.8776 41.2161 70.6016 41.4141C70.3307 41.612 70.0104 41.7604 69.6406 41.8594C69.276 41.9531 68.8828 42 68.4609 42H65.3359ZM66.7031 41H68.4531C68.9844 41 69.4036 40.8776 69.7109 40.6328C70.0234 40.3828 70.1797 40.0417 70.1797 39.6094C70.1797 39.4167 70.1484 39.2422 70.0859 39.0859C70.0286 38.9297 69.9323 38.7917 69.7969 38.6719C69.6667 38.5521 69.4896 38.4609 69.2656 38.3984C69.0469 38.3359 68.7786 38.3047 68.4609 38.3047H66.7031V41ZM66.7031 37.3984H68.2656C68.5 37.3984 68.7161 37.3672 68.9141 37.3047C69.1172 37.237 69.2891 37.1432 69.4297 37.0234C69.5755 36.9036 69.6875 36.7604 69.7656 36.5938C69.849 36.4219 69.8906 36.2344 69.8906 36.0312C69.8906 35.8802 69.8646 35.7344 69.8125 35.5938C69.7604 35.4531 69.6693 35.3281 69.5391 35.2188C69.4089 35.1094 69.2396 35.0234 69.0312 34.9609C68.8281 34.8932 68.5729 34.8594 68.2656 34.8594H66.7031V37.3984Z" fill="url(#paint18_linear_85_169)"/>
<path d="M72.2109 34.9844V33.8984H79.8594V34.9844H76.7422V42H75.3203V34.9844H72.2109Z" fill="url(#paint19_linear_85_169)"/>
<path d="M80.4297 37.9453C80.4297 37.3099 80.5182 36.7344 80.6953 36.2188C80.8776 35.7031 81.1354 35.2656 81.4688 34.9062C81.8073 34.5417 82.2135 34.2604 82.6875 34.0625C83.1667 33.8646 83.7057 33.7656 84.3047 33.7656C84.8984 33.7656 85.4323 33.8646 85.9062 34.0625C86.3802 34.2604 86.7839 34.5417 87.1172 34.9062C87.4557 35.2656 87.7135 35.7031 87.8906 36.2188C88.0677 36.7344 88.1562 37.3099 88.1562 37.9453C88.1562 38.5859 88.0677 39.1615 87.8906 39.6719C87.7135 40.1823 87.4557 40.6198 87.1172 40.9844C86.7839 41.349 86.3776 41.6276 85.8984 41.8203C85.4245 42.013 84.8932 42.1094 84.3047 42.1094C83.7057 42.1094 83.1667 42.013 82.6875 41.8203C82.2135 41.6276 81.8073 41.349 81.4688 40.9844C81.1354 40.6198 80.8776 40.1823 80.6953 39.6719C80.5182 39.1615 80.4297 38.5859 80.4297 37.9453ZM81.8906 37.9531C81.8906 38.9115 82.0885 39.6589 82.4844 40.1953C82.8854 40.7318 83.4922 41 84.3047 41C85.1068 41 85.7031 40.7318 86.0938 40.1953C86.4896 39.6589 86.6875 38.9115 86.6875 37.9531C86.6875 36.9896 86.4896 36.2396 86.0938 35.7031C85.6979 35.1615 85.1016 34.8906 84.3047 34.8906C83.8984 34.8906 83.5443 34.9609 83.2422 35.1016C82.9401 35.237 82.6875 35.4349 82.4844 35.6953C82.2865 35.9557 82.138 36.2786 82.0391 36.6641C81.9401 37.0443 81.8906 37.474 81.8906 37.9531Z" fill="url(#paint20_linear_85_169)"/>
<path d="M89.1094 40.8672L89.5078 40.3438C89.5703 40.2552 89.6615 40.2109 89.7812 40.2109C89.875 40.2109 89.9766 40.2526 90.0859 40.3359C90.2005 40.4141 90.3359 40.5052 90.4922 40.6094C90.6536 40.7083 90.849 40.7995 91.0781 40.8828C91.3125 40.9661 91.599 41.0078 91.9375 41.0078C92.2292 41.0078 92.4896 40.9714 92.7188 40.8984C92.9531 40.8255 93.151 40.7266 93.3125 40.6016C93.474 40.4714 93.5964 40.3203 93.6797 40.1484C93.763 39.9714 93.8047 39.7786 93.8047 39.5703C93.8047 39.1693 93.638 38.8464 93.3047 38.6016C92.9714 38.3568 92.4661 38.2344 91.7891 38.2344H90.875V37.2891H91.7891C92.0807 37.2891 92.3438 37.2578 92.5781 37.1953C92.8177 37.1328 93.0182 37.0495 93.1797 36.9453C93.3464 36.8359 93.4714 36.7057 93.5547 36.5547C93.6432 36.4036 93.6875 36.2396 93.6875 36.0625C93.6875 35.901 93.651 35.75 93.5781 35.6094C93.5052 35.4635 93.3958 35.3385 93.25 35.2344C93.1042 35.125 92.9219 35.0391 92.7031 34.9766C92.4844 34.9141 92.2292 34.8828 91.9375 34.8828C91.6198 34.8828 91.349 34.9141 91.125 34.9766C90.901 35.0391 90.7135 35.1094 90.5625 35.1875C90.4115 35.2604 90.2865 35.3281 90.1875 35.3906C90.0938 35.4531 90.013 35.4844 89.9453 35.4844C89.8776 35.4844 89.8203 35.4714 89.7734 35.4453C89.7266 35.4193 89.6771 35.3646 89.625 35.2812L89.2969 34.7266C89.599 34.4401 89.9661 34.2083 90.3984 34.0312C90.8359 33.8542 91.362 33.7656 91.9766 33.7656C92.4661 33.7656 92.8958 33.8255 93.2656 33.9453C93.6406 34.0651 93.9557 34.224 94.2109 34.4219C94.4661 34.6198 94.6589 34.8464 94.7891 35.1016C94.9193 35.3516 94.9844 35.6146 94.9844 35.8906C94.9844 36.0521 94.9583 36.2214 94.9062 36.3984C94.8542 36.5703 94.7682 36.737 94.6484 36.8984C94.5339 37.0547 94.3828 37.2031 94.1953 37.3438C94.013 37.4844 93.7812 37.5964 93.5 37.6797C94.0156 37.8359 94.4219 38.0859 94.7188 38.4297C95.0156 38.7682 95.1641 39.1849 95.1641 39.6797C95.1641 40.0547 95.0781 40.3932 94.9062 40.6953C94.7396 40.9922 94.5104 41.2474 94.2188 41.4609C93.9323 41.6693 93.599 41.8307 93.2188 41.9453C92.8385 42.0547 92.4401 42.1094 92.0234 42.1094C91.763 42.1094 91.4974 42.0859 91.2266 42.0391C90.9557 41.9922 90.6927 41.9167 90.4375 41.8125C90.1823 41.7083 89.9401 41.5807 89.7109 41.4297C89.487 41.2734 89.2865 41.0859 89.1094 40.8672Z" fill="url(#paint21_linear_85_169)"/>
<path d="M96.9922 42V33.8984H99.9609C100.461 33.8984 100.891 33.9505 101.25 34.0547C101.609 34.1536 101.904 34.2891 102.133 34.4609C102.362 34.6328 102.529 34.8359 102.633 35.0703C102.742 35.3047 102.797 35.5547 102.797 35.8203C102.797 35.9974 102.771 36.1823 102.719 36.375C102.672 36.5677 102.589 36.7526 102.469 36.9297C102.349 37.1068 102.185 37.2656 101.977 37.4062C101.773 37.5469 101.518 37.6562 101.211 37.7344C101.826 37.8385 102.302 38.0547 102.641 38.3828C102.979 38.7057 103.148 39.1302 103.148 39.6562C103.148 40.0521 103.068 40.3958 102.906 40.6875C102.75 40.974 102.534 41.2161 102.258 41.4141C101.987 41.612 101.667 41.7604 101.297 41.8594C100.932 41.9531 100.539 42 100.117 42H96.9922ZM98.3594 41H100.109C100.641 41 101.06 40.8776 101.367 40.6328C101.68 40.3828 101.836 40.0417 101.836 39.6094C101.836 39.4167 101.805 39.2422 101.742 39.0859C101.685 38.9297 101.589 38.7917 101.453 38.6719C101.323 38.5521 101.146 38.4609 100.922 38.3984C100.703 38.3359 100.435 38.3047 100.117 38.3047H98.3594V41ZM98.3594 37.3984H99.9219C100.156 37.3984 100.372 37.3672 100.57 37.3047C100.773 37.237 100.945 37.1432 101.086 37.0234C101.232 36.9036 101.344 36.7604 101.422 36.5938C101.505 36.4219 101.547 36.2344 101.547 36.0312C101.547 35.8802 101.521 35.7344 101.469 35.5938C101.417 35.4531 101.326 35.3281 101.195 35.2188C101.065 35.1094 100.896 35.0234 100.688 34.9609C100.484 34.8932 100.229 34.8594 99.9219 34.8594H98.3594V37.3984Z" fill="url(#paint22_linear_85_169)"/>
<path d="M103.758 33.8984H104.984C105.109 33.8984 105.206 33.9297 105.273 33.9922C105.346 34.0495 105.398 34.1172 105.43 34.1953L107.594 39.2969C107.635 39.4219 107.674 39.5417 107.711 39.6562C107.753 39.7656 107.786 39.8828 107.812 40.0078C107.88 39.7682 107.958 39.5286 108.047 39.2891L110.156 34.1953C110.188 34.112 110.242 34.0417 110.32 33.9844C110.398 33.9271 110.484 33.8984 110.578 33.8984H111.703L107.188 44.3906C107.141 44.4948 107.081 44.5781 107.008 44.6406C106.935 44.7083 106.823 44.7422 106.672 44.7422H105.617L107.102 41.5312L103.758 33.8984Z" fill="url(#paint23_linear_85_169)"/>
<path d="M112.961 42.0078V33.8984H114.398V37.3984H115.164C115.591 37.3984 115.924 37.2188 116.164 36.8594L117.883 34.2969C117.956 34.1771 118.055 34.0807 118.18 34.0078C118.305 33.9349 118.435 33.8984 118.57 33.8984H119.688L117.578 36.9844C117.448 37.1823 117.312 37.3438 117.172 37.4688C117.036 37.5938 116.867 37.6901 116.664 37.7578C116.919 37.8255 117.135 37.9349 117.312 38.0859C117.49 38.2318 117.648 38.4193 117.789 38.6484L119.914 42H118.922C118.667 42 118.469 41.9583 118.328 41.875C118.193 41.7865 118.073 41.6641 117.969 41.5078L116.398 38.9844C116.148 38.5677 115.771 38.3594 115.266 38.3594H114.398V42.0078H112.961Z" fill="url(#paint24_linear_85_169)"/>
<path d="M120.641 39.9766C120.641 39.6589 120.727 39.3516 120.898 39.0547C121.076 38.7578 121.362 38.4948 121.758 38.2656C122.154 38.0365 122.667 37.849 123.297 37.7031C123.932 37.5521 124.714 37.4661 125.641 37.4453V36.8125C125.641 36.1823 125.503 35.7083 125.227 35.3906C124.956 35.0677 124.56 34.9062 124.039 34.9062C123.685 34.9062 123.388 34.9505 123.148 35.0391C122.914 35.1276 122.708 35.2266 122.531 35.3359C122.359 35.4401 122.211 35.5365 122.086 35.625C121.961 35.7135 121.839 35.7578 121.719 35.7578C121.625 35.7578 121.542 35.7344 121.469 35.6875C121.401 35.6354 121.344 35.5703 121.297 35.4922L121.039 35.0391C121.487 34.6068 121.969 34.2839 122.484 34.0703C123 33.8568 123.573 33.75 124.203 33.75C124.656 33.75 125.057 33.8255 125.406 33.9766C125.76 34.1276 126.057 34.3359 126.297 34.6016C126.542 34.8672 126.724 35.1901 126.844 35.5703C126.969 35.9453 127.031 36.3594 127.031 36.8125V42H126.398C126.258 42 126.151 41.9792 126.078 41.9375C126.005 41.8906 125.945 41.7995 125.898 41.6641L125.742 40.9062C125.529 41.099 125.318 41.2708 125.109 41.4219C124.906 41.5729 124.693 41.7005 124.469 41.8047C124.25 41.9089 124.013 41.987 123.758 42.0391C123.508 42.0964 123.227 42.125 122.914 42.125C122.602 42.125 122.305 42.0833 122.023 42C121.747 41.9115 121.508 41.7786 121.305 41.6016C121.102 41.4245 120.94 41.2031 120.82 40.9375C120.701 40.6667 120.641 40.3464 120.641 39.9766ZM122.008 39.9141C122.008 40.1276 122.042 40.3125 122.109 40.4688C122.177 40.6198 122.271 40.7448 122.391 40.8438C122.51 40.9427 122.651 41.0156 122.812 41.0625C122.979 41.1042 123.156 41.125 123.344 41.125C123.594 41.125 123.823 41.1016 124.031 41.0547C124.24 41.0026 124.435 40.9297 124.617 40.8359C124.799 40.7422 124.974 40.6276 125.141 40.4922C125.312 40.3568 125.479 40.2031 125.641 40.0312V38.3516C124.984 38.3724 124.424 38.4245 123.961 38.5078C123.497 38.5911 123.12 38.7005 122.828 38.8359C122.542 38.9661 122.333 39.1224 122.203 39.3047C122.073 39.487 122.008 39.6901 122.008 39.9141Z" fill="url(#paint25_linear_85_169)"/>
<defs>
<linearGradient id="paint0_linear_85_169" x1="183.242" y1="13.5738" x2="0.242188" y2="13.5738" gradientUnits="userSpaceOnUse">
<stop stop-color="#1F180E"/>
<stop offset="1" stop-color="#D21500"/>
</linearGradient>
<linearGradient id="paint1_linear_85_169" x1="183.242" y1="13.5738" x2="0.242188" y2="13.5738" gradientUnits="userSpaceOnUse">
<stop stop-color="#1F180E"/>
<stop offset="1" stop-color="#D21500"/>
</linearGradient>
<linearGradient id="paint2_linear_85_169" x1="183.242" y1="13.5738" x2="0.242188" y2="13.5738" gradientUnits="userSpaceOnUse">
<stop stop-color="#1F180E"/>
<stop offset="1" stop-color="#D21500"/>
</linearGradient>
<linearGradient id="paint3_linear_85_169" x1="183.242" y1="13.5738" x2="0.242188" y2="13.5738" gradientUnits="userSpaceOnUse">
<stop stop-color="#1F180E"/>
<stop offset="1" stop-color="#D21500"/>
</linearGradient>
<linearGradient id="paint4_linear_85_169" x1="183.242" y1="13.5738" x2="0.242188" y2="13.5738" gradientUnits="userSpaceOnUse">
<stop stop-color="#1F180E"/>
<stop offset="1" stop-color="#D21500"/>
</linearGradient>
<linearGradient id="paint5_linear_85_169" x1="183.242" y1="13.5738" x2="0.242188" y2="13.5738" gradientUnits="userSpaceOnUse">
<stop stop-color="#1F180E"/>
<stop offset="1" stop-color="#D21500"/>
</linearGradient>
<linearGradient id="paint6_linear_85_169" x1="183.242" y1="13.5738" x2="0.242188" y2="13.5738" gradientUnits="userSpaceOnUse">
<stop stop-color="#1F180E"/>
<stop offset="1" stop-color="#D21500"/>
</linearGradient>
<linearGradient id="paint7_linear_85_169" x1="183.242" y1="13.5738" x2="0.242188" y2="13.5738" gradientUnits="userSpaceOnUse">
<stop stop-color="#1F180E"/>
<stop offset="1" stop-color="#D21500"/>
</linearGradient>
<linearGradient id="paint8_linear_85_169" x1="183.242" y1="13.5738" x2="0.242188" y2="13.5738" gradientUnits="userSpaceOnUse">
<stop stop-color="#1F180E"/>
<stop offset="1" stop-color="#D21500"/>
</linearGradient>
<linearGradient id="paint9_linear_85_169" x1="183.242" y1="13.5738" x2="0.242188" y2="13.5738" gradientUnits="userSpaceOnUse">
<stop stop-color="#1F180E"/>
<stop offset="1" stop-color="#D21500"/>
</linearGradient>
<linearGradient id="paint10_linear_85_169" x1="183.242" y1="13.5738" x2="0.242188" y2="13.5738" gradientUnits="userSpaceOnUse">
<stop stop-color="#1F180E"/>
<stop offset="1" stop-color="#D21500"/>
</linearGradient>
<linearGradient id="paint11_linear_85_169" x1="127.031" y1="37.5977" x2="0" y2="37.5977" gradientUnits="userSpaceOnUse">
<stop stop-color="#1F180E"/>
<stop offset="1" stop-color="#D21500"/>
</linearGradient>
<linearGradient id="paint12_linear_85_169" x1="127.031" y1="37.5977" x2="0" y2="37.5977" gradientUnits="userSpaceOnUse">
<stop stop-color="#1F180E"/>
<stop offset="1" stop-color="#D21500"/>
</linearGradient>
<linearGradient id="paint13_linear_85_169" x1="127.031" y1="37.5977" x2="0" y2="37.5977" gradientUnits="userSpaceOnUse">
<stop stop-color="#1F180E"/>
<stop offset="1" stop-color="#D21500"/>
</linearGradient>
<linearGradient id="paint14_linear_85_169" x1="127.031" y1="37.5977" x2="0" y2="37.5977" gradientUnits="userSpaceOnUse">
<stop stop-color="#1F180E"/>
<stop offset="1" stop-color="#D21500"/>
</linearGradient>
<linearGradient id="paint15_linear_85_169" x1="127.031" y1="37.5977" x2="0" y2="37.5977" gradientUnits="userSpaceOnUse">
<stop stop-color="#1F180E"/>
<stop offset="1" stop-color="#D21500"/>
</linearGradient>
<linearGradient id="paint16_linear_85_169" x1="127.031" y1="37.5977" x2="0" y2="37.5977" gradientUnits="userSpaceOnUse">
<stop stop-color="#1F180E"/>
<stop offset="1" stop-color="#D21500"/>
</linearGradient>
<linearGradient id="paint17_linear_85_169" x1="127.031" y1="37.5977" x2="0" y2="37.5977" gradientUnits="userSpaceOnUse">
<stop stop-color="#1F180E"/>
<stop offset="1" stop-color="#D21500"/>
</linearGradient>
<linearGradient id="paint18_linear_85_169" x1="127.031" y1="37.5977" x2="0" y2="37.5977" gradientUnits="userSpaceOnUse">
<stop stop-color="#1F180E"/>
<stop offset="1" stop-color="#D21500"/>
</linearGradient>
<linearGradient id="paint19_linear_85_169" x1="127.031" y1="37.5977" x2="0" y2="37.5977" gradientUnits="userSpaceOnUse">
<stop stop-color="#1F180E"/>
<stop offset="1" stop-color="#D21500"/>
</linearGradient>
<linearGradient id="paint20_linear_85_169" x1="127.031" y1="37.5977" x2="0" y2="37.5977" gradientUnits="userSpaceOnUse">
<stop stop-color="#1F180E"/>
<stop offset="1" stop-color="#D21500"/>
</linearGradient>
<linearGradient id="paint21_linear_85_169" x1="127.031" y1="37.5977" x2="0" y2="37.5977" gradientUnits="userSpaceOnUse">
<stop stop-color="#1F180E"/>
<stop offset="1" stop-color="#D21500"/>
</linearGradient>
<linearGradient id="paint22_linear_85_169" x1="127.031" y1="37.5977" x2="0" y2="37.5977" gradientUnits="userSpaceOnUse">
<stop stop-color="#1F180E"/>
<stop offset="1" stop-color="#D21500"/>
</linearGradient>
<linearGradient id="paint23_linear_85_169" x1="127.031" y1="37.5977" x2="0" y2="37.5977" gradientUnits="userSpaceOnUse">
<stop stop-color="#1F180E"/>
<stop offset="1" stop-color="#D21500"/>
</linearGradient>
<linearGradient id="paint24_linear_85_169" x1="127.031" y1="37.5977" x2="0" y2="37.5977" gradientUnits="userSpaceOnUse">
<stop stop-color="#1F180E"/>
<stop offset="1" stop-color="#D21500"/>
</linearGradient>
<linearGradient id="paint25_linear_85_169" x1="127.031" y1="37.5977" x2="0" y2="37.5977" gradientUnits="userSpaceOnUse">
<stop stop-color="#1F180E"/>
<stop offset="1" stop-color="#D21500"/>
</linearGradient>
</defs>
</svg>
