<svg width="19" height="19" viewBox="0 0 19 19" fill="none" xmlns="http://www.w3.org/2000/svg">
<path d="M17.2417 13.4791V15.8877C17.2426 16.1113 17.1967 16.3327 17.107 16.5375C17.0172 16.7424 16.8856 16.9263 16.7205 17.0775C16.5554 17.2286 16.3604 17.3437 16.1482 17.4154C15.936 17.487 15.7111 17.5136 15.4879 17.4935C13.0124 17.225 10.6345 16.3808 8.54531 15.0286C6.60156 13.7959 4.9536 12.1512 3.71846 10.2113C2.35888 8.11679 1.51278 5.73206 1.24872 3.25036C1.22861 3.02834 1.25505 2.80457 1.32635 2.5933C1.39765 2.38203 1.51224 2.1879 1.66283 2.02325C1.81343 1.85861 1.99672 1.72706 2.20105 1.63699C2.40537 1.54691 2.62625 1.50029 2.84962 1.50008H5.26305C5.65347 1.49624 6.03196 1.63422 6.32798 1.8883C6.62401 2.14237 6.81736 2.49521 6.872 2.88103C6.97387 3.65185 7.16278 4.4087 7.43513 5.13713C7.54337 5.4245 7.5668 5.73682 7.50264 6.03707C7.43847 6.33732 7.28941 6.61292 7.07312 6.83121L6.05144 7.85087C7.19665 9.86092 8.86425 11.5252 10.8783 12.6682L11.9 11.6485C12.1187 11.4326 12.3949 11.2839 12.6957 11.2198C12.9965 11.1558 13.3095 11.1792 13.5974 11.2872C14.3273 11.559 15.0856 11.7476 15.858 11.8492C16.2488 11.9042 16.6057 12.1007 16.8608 12.4012C17.1159 12.7017 17.2515 13.0853 17.2417 13.4791Z" stroke="#1F180E" stroke-width="2" stroke-linecap="round" stroke-linejoin="round"/>
</svg>
