<svg width="81" height="81" viewBox="0 0 81 81" fill="none" xmlns="http://www.w3.org/2000/svg">
<path d="M23.2132 16.7737C21.4414 14.8399 21.1747 11.961 22.5652 9.73687L26.6659 3.1725C27.8977 1.19813 30.0611 0 32.3899 0H37.5469L33.7466 10.125H47.2466L43.4464 0H48.3435C50.6722 0 52.8356 1.19813 54.0675 3.1725L58.1681 9.73687C59.5586 11.961 59.2954 14.8399 57.5201 16.7737L40.4932 33.75L47.4457 16.875H33.5374L40.4899 33.75L23.2031 16.7737H23.2132ZM70.875 10.125C65.2927 10.125 60.75 14.6677 60.75 20.25V37.746C59.8522 37.4287 58.9207 37.1925 57.942 37.1385C55.2656 36.9967 52.6534 37.9046 50.6081 39.7339L40.4527 49.0759C40.176 48.7924 39.9127 48.4954 39.6191 48.2254L30.3581 39.7035C28.3432 37.9012 25.7209 36.9799 23.058 37.1385C22.0792 37.1925 21.1477 37.4287 20.25 37.746V20.25C20.25 14.6677 15.7072 10.125 10.125 10.125C4.54275 10.125 0 14.6677 0 20.25V54.3409C0 61.5532 2.808 68.3336 7.90762 73.4299L14.4889 80.0111C15.147 80.6693 16.011 81 16.875 81C17.739 81 18.603 80.6693 19.2611 80.0111C20.5807 78.6915 20.5807 76.5585 19.2611 75.2389L12.6799 68.6576C8.856 64.8337 6.75 59.7476 6.75 54.3409V20.25C6.75 18.3904 8.262 16.875 10.125 16.875C11.988 16.875 13.5 18.3904 13.5 20.25C13.5 20.25 13.4831 47.5031 13.5 47.6348C13.5979 49.8454 14.4619 52.056 16.0177 53.9055L24.8467 63.0889C26.136 64.4287 28.2724 64.4726 29.619 63.18C30.9589 61.8874 31.0027 59.751 29.7101 58.4077L21.033 49.3965C19.9665 48.1208 19.9969 46.2308 21.1072 44.9888C21.7046 44.3205 22.5281 43.9256 23.4259 43.875C24.3135 43.8176 25.1842 44.1315 25.8221 44.6985L35.0494 53.1934C38.5087 56.376 40.4966 60.9053 40.4966 65.61V77.625C40.4966 79.4914 42.0052 81 43.8716 81C45.738 81 47.2466 79.4914 47.2466 77.625V65.61C47.2466 61.722 46.2544 57.9319 44.4656 54.5535L55.1407 44.7289C55.809 44.1281 56.6764 43.8143 57.5707 43.875C58.4685 43.9256 59.292 44.3205 59.8927 44.9921C60.4294 45.5929 60.7027 46.3455 60.75 47.0914V47.2466C60.75 47.2466 60.75 47.2534 60.75 47.2567C60.7601 47.9857 60.5542 48.6979 60.1155 49.2244L51.5666 58.1141C50.274 59.4574 50.3179 61.5937 51.6577 62.8864C52.3125 63.5175 53.1529 63.828 53.9966 63.828C54.8842 63.828 55.7651 63.4804 56.43 62.7919L65.1307 53.73C66.6495 51.921 67.4494 49.6935 67.4966 47.4559C67.5 47.3816 67.4966 20.2432 67.4966 20.2432C67.4966 18.3836 69.0086 16.8682 70.8716 16.8682C72.7346 16.8682 74.2466 18.3836 74.2466 20.2432V54.3341C74.2466 59.7443 72.1406 64.827 68.3167 68.6509L61.7355 75.2321C60.4159 76.5518 60.4159 78.6848 61.7355 80.0044C62.3936 80.6625 63.2576 80.9932 64.1216 80.9932C64.9856 80.9932 65.8496 80.6625 66.5077 80.0044L73.089 73.4231C78.1886 68.3235 80.9966 61.5431 80.9966 54.3341V20.25C80.9966 14.6677 76.4572 10.125 70.875 10.125Z" fill="url(#paint0_linear_17_106)"/>
<defs>
<linearGradient id="paint0_linear_17_106" x1="80.9966" y1="40.5" x2="0" y2="40.5" gradientUnits="userSpaceOnUse">
<stop stop-color="#1F180E"/>
<stop offset="1" stop-color="#D21500"/>
</linearGradient>
</defs>
</svg>
