<svg width="161" height="30" viewBox="0 0 161 30" fill="none" xmlns="http://www.w3.org/2000/svg">
<path d="M12.6441 5.1217C13.4307 3.1629 13.824 2.1835 14.5 2.1835C15.176 2.1835 15.5693 3.1629 16.3559 5.1217L17.7822 8.67329C18.0097 9.23979 18.1234 9.52303 18.3563 9.69225C18.5892 9.86147 18.8937 9.88212 19.5028 9.92341L23.3213 10.1823C25.4273 10.3251 26.4803 10.3965 26.6892 11.0395C26.8981 11.6824 26.0882 12.3591 24.4683 13.7125L21.5313 16.1665C21.0628 16.5579 20.8286 16.7536 20.7396 17.0274C20.6507 17.3012 20.7251 17.5972 20.8741 18.1892L21.8078 21.9008C22.3228 23.9479 22.5803 24.9714 22.0334 25.3688C21.4864 25.7661 20.5926 25.205 18.8048 24.0826L15.5634 22.0476C15.0464 21.723 14.7879 21.5607 14.5 21.5607C14.2121 21.5607 13.9536 21.723 13.4366 22.0476L10.1952 24.0826C8.40744 25.205 7.51358 25.7661 6.96665 25.3688C6.41972 24.9714 6.67721 23.9479 7.19219 21.9008L8.12593 18.1892C8.27486 17.5972 8.34933 17.3012 8.26037 17.0274C8.1714 16.7536 7.93717 16.5579 7.4687 16.1665L4.53166 13.7125C2.9118 12.3591 2.10187 11.6824 2.31078 11.0395C2.51969 10.3965 3.57269 10.3251 5.6787 10.1823L9.49719 9.92341C10.1063 9.88212 10.4108 9.86147 10.6437 9.69225C10.8766 9.52303 10.9903 9.23979 11.2178 8.67329L12.6441 5.1217Z" fill="url(#paint0_linear_31_107)"/>
<path d="M45.6441 5.1217C46.4307 3.1629 46.824 2.1835 47.5 2.1835C48.176 2.1835 48.5693 3.1629 49.3559 5.1217L50.7822 8.67329C51.0097 9.23979 51.1234 9.52303 51.3563 9.69225C51.5892 9.86147 51.8937 9.88212 52.5028 9.92341L56.3213 10.1823C58.4273 10.3251 59.4803 10.3965 59.6892 11.0395C59.8981 11.6824 59.0882 12.3591 57.4683 13.7125L54.5313 16.1665C54.0628 16.5579 53.8286 16.7536 53.7396 17.0274C53.6507 17.3012 53.7251 17.5972 53.8741 18.1892L54.8078 21.9008C55.3228 23.9479 55.5803 24.9714 55.0334 25.3688C54.4864 25.7661 53.5926 25.205 51.8048 24.0826L48.5634 22.0476C48.0464 21.723 47.7879 21.5607 47.5 21.5607C47.2121 21.5607 46.9536 21.723 46.4366 22.0476L43.1952 24.0826C41.4074 25.205 40.5136 25.7661 39.9666 25.3688C39.4197 24.9714 39.6772 23.9479 40.1922 21.9008L41.1259 18.1892C41.2749 17.5972 41.3493 17.3012 41.2604 17.0274C41.1714 16.7536 40.9372 16.5579 40.4687 16.1665L37.5317 13.7125C35.9118 12.3591 35.1019 11.6824 35.3108 11.0395C35.5197 10.3965 36.5727 10.3251 38.6787 10.1823L42.4972 9.92341C43.1063 9.88212 43.4108 9.86147 43.6437 9.69225C43.8766 9.52303 43.9903 9.23979 44.2178 8.67329L45.6441 5.1217Z" fill="url(#paint1_linear_31_107)"/>
<path d="M78.6441 5.1217C79.4307 3.1629 79.824 2.1835 80.5 2.1835C81.176 2.1835 81.5693 3.1629 82.3559 5.1217L83.7822 8.67329C84.0097 9.23979 84.1234 9.52303 84.3563 9.69225C84.5892 9.86147 84.8937 9.88212 85.5028 9.92341L89.3213 10.1823C91.4273 10.3251 92.4803 10.3965 92.6892 11.0395C92.8981 11.6824 92.0882 12.3591 90.4683 13.7125L87.5313 16.1665C87.0628 16.5579 86.8286 16.7536 86.7396 17.0274C86.6507 17.3012 86.7251 17.5972 86.8741 18.1892L87.8078 21.9008C88.3228 23.9479 88.5803 24.9714 88.0334 25.3688C87.4864 25.7661 86.5926 25.205 84.8048 24.0826L81.5634 22.0476C81.0464 21.723 80.7879 21.5607 80.5 21.5607C80.2121 21.5607 79.9536 21.723 79.4366 22.0476L76.1952 24.0826C74.4074 25.205 73.5136 25.7661 72.9666 25.3688C72.4197 24.9714 72.6772 23.9479 73.1922 21.9008L74.1259 18.1892C74.2749 17.5972 74.3493 17.3012 74.2604 17.0274C74.1714 16.7536 73.9372 16.5579 73.4687 16.1665L70.5317 13.7125C68.9118 12.3591 68.1019 11.6824 68.3108 11.0395C68.5197 10.3965 69.5727 10.3251 71.6787 10.1823L75.4972 9.92341C76.1063 9.88212 76.4108 9.86147 76.6437 9.69225C76.8766 9.52303 76.9903 9.23979 77.2178 8.67329L78.6441 5.1217Z" fill="url(#paint2_linear_31_107)"/>
<path d="M111.644 5.1217C112.431 3.1629 112.824 2.1835 113.5 2.1835C114.176 2.1835 114.569 3.1629 115.356 5.1217L116.782 8.67329C117.01 9.23979 117.123 9.52303 117.356 9.69225C117.589 9.86147 117.894 9.88212 118.503 9.92341L122.321 10.1823C124.427 10.3251 125.48 10.3965 125.689 11.0395C125.898 11.6824 125.088 12.3591 123.468 13.7125L120.531 16.1665C120.063 16.5579 119.829 16.7536 119.74 17.0274C119.651 17.3012 119.725 17.5972 119.874 18.1892L120.808 21.9008C121.323 23.9479 121.58 24.9714 121.033 25.3688C120.486 25.7661 119.593 25.205 117.805 24.0826L114.563 22.0476C114.046 21.723 113.788 21.5607 113.5 21.5607C113.212 21.5607 112.954 21.723 112.437 22.0476L109.195 24.0826C107.407 25.205 106.514 25.7661 105.967 25.3688C105.42 24.9714 105.677 23.9479 106.192 21.9008L107.126 18.1892C107.275 17.5972 107.349 17.3012 107.26 17.0274C107.171 16.7536 106.937 16.5579 106.469 16.1665L103.532 13.7125C101.912 12.3591 101.102 11.6824 101.311 11.0395C101.52 10.3965 102.573 10.3251 104.679 10.1823L108.497 9.92341C109.106 9.88212 109.411 9.86147 109.644 9.69225C109.877 9.52303 109.99 9.23979 110.218 8.67329L111.644 5.1217Z" fill="url(#paint3_linear_31_107)"/>
<path d="M144.644 5.1217C145.431 3.1629 145.824 2.1835 146.5 2.1835C147.176 2.1835 147.569 3.1629 148.356 5.1217L149.782 8.67329C150.01 9.23979 150.123 9.52303 150.356 9.69225C150.589 9.86147 150.894 9.88212 151.503 9.92341L155.321 10.1823C157.427 10.3251 158.48 10.3965 158.689 11.0395C158.898 11.6824 158.088 12.3591 156.468 13.7125L153.531 16.1665C153.063 16.5579 152.829 16.7536 152.74 17.0274C152.651 17.3012 152.725 17.5972 152.874 18.1892L153.808 21.9008C154.323 23.9479 154.58 24.9714 154.033 25.3688C153.486 25.7661 152.593 25.205 150.805 24.0826L147.563 22.0476C147.046 21.723 146.788 21.5607 146.5 21.5607C146.212 21.5607 145.954 21.723 145.437 22.0476L142.195 24.0826C140.407 25.205 139.514 25.7661 138.967 25.3688C138.42 24.9714 138.677 23.9479 139.192 21.9008L140.126 18.1892C140.275 17.5972 140.349 17.3012 140.26 17.0274C140.171 16.7536 139.937 16.5579 139.469 16.1665L136.532 13.7125C134.912 12.3591 134.102 11.6824 134.311 11.0395C134.52 10.3965 135.573 10.3251 137.679 10.1823L141.497 9.92341C142.106 9.88212 142.411 9.86147 142.644 9.69225C142.877 9.52303 142.99 9.23979 143.218 8.67329L144.644 5.1217Z" fill="url(#paint4_linear_31_107)"/>
<defs>
<linearGradient id="paint0_linear_31_107" x1="29" y1="15" x2="0" y2="15" gradientUnits="userSpaceOnUse">
<stop stop-color="#1F180E"/>
<stop offset="1" stop-color="#D21500"/>
</linearGradient>
<linearGradient id="paint1_linear_31_107" x1="62" y1="15" x2="33" y2="15" gradientUnits="userSpaceOnUse">
<stop stop-color="#1F180E"/>
<stop offset="1" stop-color="#D21500"/>
</linearGradient>
<linearGradient id="paint2_linear_31_107" x1="95" y1="15" x2="66" y2="15" gradientUnits="userSpaceOnUse">
<stop stop-color="#1F180E"/>
<stop offset="1" stop-color="#D21500"/>
</linearGradient>
<linearGradient id="paint3_linear_31_107" x1="128" y1="15" x2="99" y2="15" gradientUnits="userSpaceOnUse">
<stop stop-color="#1F180E"/>
<stop offset="1" stop-color="#D21500"/>
</linearGradient>
<linearGradient id="paint4_linear_31_107" x1="161" y1="15" x2="132" y2="15" gradientUnits="userSpaceOnUse">
<stop stop-color="#1F180E"/>
<stop offset="1" stop-color="#D21500"/>
</linearGradient>
</defs>
</svg>
