<svg width="20" height="19" viewBox="0 0 20 19" fill="none" xmlns="http://www.w3.org/2000/svg">
<path d="M19.2422 16.3611C19.2422 17.8188 18.061 19 16.6033 19H2.88108C1.42388 19 0.242188 17.8188 0.242188 16.3611V2.63889C0.242188 1.18117 1.42388 0 2.88108 0H16.6033C18.061 0 19.2422 1.18117 19.2422 2.63889V16.3611Z" fill="#1F180E"/>
<path d="M16.0423 6.22831C16.0666 6.14862 16.0782 6.07473 16.075 6.00876C16.0671 5.8177 15.9357 5.67889 15.6264 5.67889H14.2447C13.8958 5.67889 13.7348 5.89001 13.6409 6.10164C13.6409 6.10164 12.7796 7.87445 11.7868 9.04348C11.4649 9.38178 11.3013 9.37334 11.1271 9.37334C11.0337 9.37334 10.7978 9.26039 10.7978 8.95059V6.21406C10.7978 5.84778 10.7065 5.67889 10.4114 5.67889H7.95779C7.74298 5.67889 7.6311 5.84778 7.6311 6.0172C7.6311 6.36923 8.10504 6.45367 8.15887 7.44009V9.35223C8.15887 9.81667 8.07812 9.90112 7.90396 9.90112C7.43424 9.90112 6.50957 8.31778 5.89049 6.24256C5.75643 5.83406 5.62237 5.67889 5.27351 5.67889H3.8786C3.4759 5.67889 3.40887 5.87628 3.40887 6.08739C3.40887 6.46792 3.72554 8.5252 5.45401 10.8907C6.70748 12.606 8.3589 13.5956 9.82085 13.5956C10.7065 13.5956 10.7972 13.3702 10.7972 13.0182V11.4496C10.7978 11.0269 10.8943 10.9567 11.1762 10.9567C11.3773 10.9567 11.7873 11.0886 12.579 12.0122C13.4921 13.0773 13.6578 13.5956 14.1813 13.5956H15.5631C15.884 13.5956 16.0681 13.461 16.0755 13.1997C16.0771 13.1332 16.0676 13.0588 16.046 12.9759C15.9436 12.6719 15.4739 11.9288 14.888 11.2206C14.5635 10.8284 14.2431 10.44 14.0958 10.2289C13.9972 10.0911 13.9597 9.99401 13.9644 9.90112C13.9692 9.80348 14.0198 9.71059 14.0958 9.58075C14.0821 9.58075 15.8681 7.07328 16.0423 6.22831Z" fill="#FAFAFA"/>
</svg>
